<svg xmlns="http://www.w3.org/2000/svg" viewBox="0 0 48 48" fill="none" stroke="#1a365d" stroke-linecap="round" stroke-linejoin="round">
  <g stroke-width="2.4">
    <line x1="24" y1="24" x2="12" y2="12"/>
    <line x1="24" y1="24" x2="36" y2="12"/>
    <line x1="24" y1="24" x2="12" y2="36"/>
    <line x1="24" y1="24" x2="36" y2="36"/>
  </g>
  <g stroke-width="2.4">
    <circle cx="12" cy="12" r="6"/>
    <circle cx="36" cy="12" r="6"/>
    <circle cx="12" cy="36" r="6"/>
    <circle cx="36" cy="36" r="6"/>
  </g>
  <g stroke-width="1.3">
    <line x1="7" y1="12" x2="17" y2="12"/>
    <line x1="12" y1="7" x2="12" y2="17"/>
    <line x1="31" y1="12" x2="41" y2="12"/>
    <line x1="36" y1="7" x2="36" y2="17"/>
    <line x1="7" y1="36" x2="17" y2="36"/>
    <line x1="12" y1="31" x2="12" y2="41"/>
    <line x1="31" y1="36" x2="41" y2="36"/>
    <line x1="36" y1="31" x2="36" y2="41"/>
  </g>
  <g fill="#1a365d" stroke="none">
    <circle cx="12" cy="12" r="1.4"/>
    <circle cx="36" cy="12" r="1.4"/>
    <circle cx="12" cy="36" r="1.4"/>
    <circle cx="36" cy="36" r="1.4"/>
  </g>
  <rect x="20.5" y="17" width="7" height="14" rx="2.3" fill="#1a365d" stroke="none"/>
  <path d="M 22 17 L 24 14 L 26 17 Z" fill="#1a365d" stroke="none"/>
</svg>
